<?xml version="1.0" encoding="utf-8"?>
<svg version="1.0" width="1063.000000pt" height="236.000000pt" viewBox="0 0 1063.000000 236.000000" preserveAspectRatio="xMidYMid meet" xmlns="http://www.w3.org/2000/svg">
  <g transform="translate(0.000000,236.000000) scale(0.100000,-0.100000)" fill="#000000" stroke="none">
    <path d="M1383 2067 l-93 -52 0 -417 0 -418 95 0 95 0 0 128 0 127 41 50 c23 28 44 51 48 53 4 1 61 -77 126 -174 66 -97 124 -178 130 -180 6 -3 57 -3 113 -2 l102 3 -106 155 c-237 345 -227 329 -213 348 8 9 80 96 162 193 81 98 147 180 147 183 0 3 -49 6 -108 6 l-108 0 -159 -195 c-88 -107 -163 -195 -167 -195 -4 0 -9 99 -10 220 l-3 219 -92 -52z" style="fill: rgb(238, 46, 60);"/>
    <path d="M4318 2069 l-88 -51 0 -419 0 -419 95 0 95 0 0 470 c0 259 -3 470 -7 470 -5 0 -47 -23 -95 -51z" style="fill: rgb(238, 46, 60);"/>
    <path d="M5810 2071 l-85 -48 -3 -422 -2 -421 95 0 95 0 0 470 c0 259 -3 470 -7 470 -5 0 -46 -22 -93 -49z" style="fill: rgb(238, 46, 60);"/>
    <path d="M5349 2061 l-84 -48 -5 -254 -5 -254 -195 283 -194 282 -83 0 -83 0 0 -445 0 -445 95 0 95 0 2 282 3 281 195 -282 195 -281 80 2 80 3 2 457 c1 251 -1 459 -5 462 -5 3 -46 -17 -93 -43z" style="fill: rgb(238, 46, 60);"/>
    <path d="M6421 2070 c-259 -55 -329 -348 -108 -458 24 -12 98 -36 163 -53 169 -44 203 -65 204 -122 0 -41 -16 -64 -60 -87 -47 -24 -144 -27 -193 -6 -38 16 -71 51 -83 88 l-9 26 -77 -45 c-43 -25 -78 -49 -78 -54 0 -38 70 -114 136 -148 101 -52 306 -51 412 3 122 62 176 211 117 325 -41 80 -117 124 -288 167 -154 38 -203 79 -178 147 38 100 264 89 296 -14 7 -20 21 -17 75 16 19 12 47 29 63 39 23 14 26 20 16 37 -22 42 -92 99 -147 120 -65 24 -192 33 -261 19z" style="fill: rgb(238, 46, 60);"/>
    <path d="M505 1960 l-18 -110 -62 0 -61 0 -10 -70 -10 -70 58 0 c66 0 64 5 47 -101 l-12 -69 -62 0 -63 0 -7 -57 c-4 -31 -9 -62 -12 -70 -4 -10 9 -13 56 -13 42 0 61 -4 61 -12 0 -7 -7 -53 -15 -103 -8 -49 -15 -93 -15 -97 0 -5 31 -8 68 -8 l69 0 16 106 c8 58 18 108 20 110 3 3 42 4 89 2 l84 -3 -12 -75 c-7 -41 -16 -90 -19 -107 l-6 -33 70 0 69 0 11 63 c6 34 14 83 17 110 l7 47 62 0 63 0 7 48 c3 26 9 57 12 70 5 21 2 22 -57 22 l-62 0 6 32 c3 18 9 56 13 85 l6 53 62 0 63 0 11 63 c6 35 11 67 11 70 0 4 -27 7 -60 7 l-61 0 5 33 c3 17 10 59 16 91 17 100 19 96 -54 96 -71 0 -68 2 -80 -75 -4 -22 -11 -64 -17 -92 l-10 -53 -85 0 c-96 0 -91 -6 -74 96 6 32 13 74 16 92 l5 32 -69 0 -69 0 -18 -110z m271 -267 c-3 -10 -8 -40 -11 -68 -12 -90 -6 -85 -105 -85 -67 0 -88 3 -85 13 2 6 9 45 15 85 l12 72 90 0 c80 0 89 -2 84 -17z" style="fill: rgb(238, 46, 60);"/>
    <path d="M2260 1625 l0 -445 95 0 95 0 0 160 0 160 68 0 67 0 85 -160 85 -160 103 0 103 0 -37 68 c-20 37 -61 110 -91 163 -29 52 -53 100 -53 105 0 6 20 24 45 42 144 102 136 358 -15 458 -65 43 -134 54 -352 54 l-198 0 0 -445z m414 271 c41 -26 60 -64 60 -116 0 -96 -49 -130 -190 -133 l-94 -2 0 139 0 139 99 -5 c70 -3 107 -10 125 -22z" style="fill: rgb(238, 46, 60);"/>
    <path d="M3445 2058 c-3 -7 -57 -164 -120 -348 -64 -184 -132 -379 -150 -433 l-34 -98 101 3 102 3 32 98 31 99 162 1 161 2 33 -100 34 -100 101 -3 101 -3 -79 228 c-43 125 -112 325 -153 443 l-74 215 -122 3 c-92 2 -123 -1 -126 -10z m183 -356 c28 -87 52 -161 52 -165 0 -4 -49 -7 -110 -7 -60 0 -110 3 -110 7 0 15 105 323 110 323 3 0 29 -71 58 -158z" style="fill: rgb(238, 46, 60);"/>
    <path d="M7120 1625 l0 -445 95 0 95 0 0 185 0 185 139 0 138 0 42 71 c22 40 41 75 41 79 0 4 -73 8 -162 8 -90 1 -171 2 -180 2 -16 0 -18 11 -18 100 l0 100 203 2 202 3 3 55 c2 30 0 65 -3 78 l-5 22 -295 0 -295 0 0 -445z"/>
    <path d="M8065 1634 c-82 -239 -151 -439 -153 -444 -2 -6 39 -10 101 -10 l104 0 30 98 30 97 163 0 163 0 30 -97 30 -98 104 0 c62 0 103 4 101 10 -1 5 -70 205 -153 444 l-150 436 -125 0 -125 0 -150 -436z m328 77 c26 -82 50 -156 53 -165 5 -14 -8 -16 -106 -16 -85 0 -111 3 -107 13 2 6 26 81 53 164 27 84 52 153 55 153 3 0 26 -67 52 -149z"/>
    <path d="M9010 1625 l0 -445 90 0 90 0 2 291 3 291 84 -209 c47 -114 100 -245 119 -290 l34 -83 63 0 62 0 108 268 c59 147 114 278 121 292 11 21 13 -20 14 -267 l0 -293 90 0 90 0 0 445 0 445 -117 0 -118 0 -124 -300 c-69 -165 -127 -297 -129 -295 -3 3 -60 136 -127 297 l-121 293 -117 3 -117 3 0 -446z"/>
    <path d="M3725 776 c-42 -18 -83 -69 -91 -112 -24 -130 41 -229 151 -229 58 0 91 18 129 69 30 40 30 172 0 212 -48 64 -126 89 -189 60z m130 -97 c18 -34 19 -84 4 -129 -23 -64 -113 -71 -144 -9 -18 34 -19 99 -3 135 27 59 114 61 143 3z"/>
    <path d="M4688 774 l-28 -15 0 -115 c0 -63 -5 -124 -10 -135 -14 -25 -56 -25 -70 1 -8 14 -21 20 -45 20 -38 0 -41 -6 -23 -45 34 -76 178 -68 208 11 12 30 14 294 3 294 -5 -1 -20 -8 -35 -16z"/>
    <path d="M6215 776 c-63 -28 -95 -84 -95 -168 0 -136 116 -216 230 -158 33 17 60 45 60 63 0 3 -11 12 -25 21 -24 16 -26 16 -48 -8 -24 -28 -48 -34 -89 -23 -77 20 -77 194 0 214 41 11 65 5 89 -23 19 -21 25 -23 48 -12 29 13 31 25 10 54 -33 48 -119 67 -180 40z"/>
    <path d="M7890 772 c-43 -21 -64 -62 -56 -107 8 -42 23 -53 103 -80 81 -26 99 -47 63 -76 -30 -25 -77 -19 -101 12 -15 21 -17 21 -42 4 -34 -22 -34 -30 -1 -60 53 -49 171 -42 214 13 17 21 21 36 17 67 -7 50 -39 77 -117 98 -65 18 -79 38 -50 67 26 26 55 25 80 0 19 -19 22 -19 50 -5 26 14 28 18 18 35 -30 48 -116 63 -178 32z"/>
    <path d="M1980 610 l0 -170 35 0 35 0 0 55 0 55 53 0 c109 0 168 82 122 170 -24 46 -62 60 -160 60 l-85 0 0 -170z m155 104 c27 -11 38 -53 20 -80 -12 -19 -24 -24 -60 -24 l-45 0 0 55 0 55 34 0 c19 0 42 -3 51 -6z"/>
    <path d="M2810 610 l0 -170 35 0 35 0 0 60 c0 60 0 60 30 60 26 0 33 -7 60 -60 30 -59 31 -60 71 -60 l41 0 -37 65 -36 65 26 23 c30 26 42 79 26 119 -19 49 -64 68 -163 68 l-88 0 0 -170z m176 85 c15 -23 15 -27 0 -50 -14 -21 -25 -25 -61 -25 l-45 0 0 50 0 50 45 0 c36 0 47 -4 61 -25z"/>
    <path d="M5310 610 l0 -170 115 0 115 0 0 30 0 30 -80 0 -80 0 0 40 0 40 58 0 c53 0 58 2 74 30 l17 30 -74 0 -75 0 0 40 0 40 80 0 80 0 0 30 0 30 -115 0 -115 0 0 -170z"/>
    <path d="M6990 750 c0 -29 1 -30 50 -30 l50 0 0 -140 0 -140 35 0 35 0 0 140 0 140 34 0 c32 0 66 27 66 52 0 5 -61 8 -135 8 l-135 0 0 -30z"/>
  </g>
</svg>